%TF.GenerationSoftware,Altium Limited,Altium Designer,23.6.0 (18)*%
G04 Layer_Color=32896*
%FSLAX26Y26*%
%MOIN*%
%TF.SameCoordinates,9B35E0B2-5C19-4761-B797-B6A5D59CF105*%
%TF.FilePolarity,Positive*%
%TF.FileFunction,Legend,Bot*%
%TF.Part,Single*%
G01*
G75*
%TA.AperFunction,NonConductor*%
%ADD41C,0.005000*%
%ADD44C,0.010000*%
%ADD45C,0.007000*%
D41*
X7090071Y2674013D02*
Y2700671D01*
X7103400Y2714000D01*
X7116729Y2700671D01*
Y2674013D01*
X7130058Y2714000D02*
X7143387D01*
X7136723D01*
Y2687342D01*
X7130058D01*
X7163381Y2714000D02*
Y2687342D01*
X7183374D01*
X7190039Y2694006D01*
Y2714000D01*
X7110052Y2980677D02*
X7103387Y2974013D01*
X7090058D01*
X7083394Y2980677D01*
Y3007336D01*
X7090058Y3014000D01*
X7103387D01*
X7110052Y3007336D01*
X7123381Y3014000D02*
Y2987342D01*
X7136710Y2974013D01*
X7150039Y2987342D01*
Y3014000D01*
Y2994006D01*
X7123381D01*
X7163368Y3014000D02*
Y2974013D01*
X7190026Y3014000D01*
Y2974013D01*
X7203355Y3014000D02*
Y2974013D01*
X7223348D01*
X7230013Y2980677D01*
Y2994006D01*
X7223348Y3000671D01*
X7203355D01*
X7216684D02*
X7230013Y3014000D01*
X7243342Y2974013D02*
X7270000Y3014000D01*
Y2974013D02*
X7243342Y3014000D01*
X7283329D02*
X7296658D01*
X7289994D01*
Y2974013D01*
X7283329Y2980677D01*
X7110052Y3080677D02*
X7103387Y3074013D01*
X7090058D01*
X7083394Y3080677D01*
Y3107336D01*
X7090058Y3114000D01*
X7103387D01*
X7110052Y3107336D01*
X7123381Y3114000D02*
Y3087342D01*
X7136710Y3074013D01*
X7150039Y3087342D01*
Y3114000D01*
Y3094006D01*
X7123381D01*
X7163368Y3114000D02*
Y3074013D01*
X7190026Y3114000D01*
Y3074013D01*
X7203355D02*
X7230013D01*
X7216684D01*
Y3114000D01*
X7243342Y3074013D02*
X7270000Y3114000D01*
Y3074013D02*
X7243342Y3114000D01*
X7283329D02*
X7296658D01*
X7289994D01*
Y3074013D01*
X7283329Y3080677D01*
X7088394Y3209000D02*
Y3169013D01*
X7108387D01*
X7115052Y3175677D01*
Y3189006D01*
X7108387Y3195671D01*
X7088394D01*
X7101723D02*
X7115052Y3209000D01*
X7128381Y3169013D02*
X7155039Y3209000D01*
Y3169013D02*
X7128381Y3209000D01*
X7195026Y3169013D02*
X7168368D01*
Y3189006D01*
X7181697Y3182342D01*
X7188361D01*
X7195026Y3189006D01*
Y3202336D01*
X7188361Y3209000D01*
X7175032D01*
X7168368Y3202336D01*
X7090071Y3274013D02*
X7116729D01*
X7103400D01*
Y3314000D01*
X7130058Y3274013D02*
X7156716Y3314000D01*
Y3274013D02*
X7130058Y3314000D01*
X7196703Y3274013D02*
X7170045D01*
Y3294006D01*
X7183374Y3287342D01*
X7190039D01*
X7196703Y3294006D01*
Y3307336D01*
X7190039Y3314000D01*
X7176710D01*
X7170045Y3307336D01*
X7116729Y3380677D02*
X7110065Y3374013D01*
X7096735D01*
X7090071Y3380677D01*
Y3387342D01*
X7096735Y3394006D01*
X7110065D01*
X7116729Y3400671D01*
Y3407336D01*
X7110065Y3414000D01*
X7096735D01*
X7090071Y3407336D01*
X7156716Y3380677D02*
X7150052Y3374013D01*
X7136723D01*
X7130058Y3380677D01*
Y3407336D01*
X7136723Y3414000D01*
X7150052D01*
X7156716Y3407336D01*
X7170045Y3374013D02*
Y3414000D01*
X7196703D01*
X7210032Y3380677D02*
X7216697Y3374013D01*
X7230026D01*
X7236690Y3380677D01*
Y3407336D01*
X7230026Y3414000D01*
X7216697D01*
X7210032Y3407336D01*
Y3380677D01*
X7116729Y3480677D02*
X7110065Y3474013D01*
X7096735D01*
X7090071Y3480677D01*
Y3487342D01*
X7096735Y3494006D01*
X7110065D01*
X7116729Y3500671D01*
Y3507336D01*
X7110065Y3514000D01*
X7096735D01*
X7090071Y3507336D01*
X7130058Y3474013D02*
Y3514000D01*
X7150052D01*
X7156716Y3507336D01*
Y3480677D01*
X7150052Y3474013D01*
X7130058D01*
X7170045Y3514000D02*
Y3487342D01*
X7183374Y3474013D01*
X7196703Y3487342D01*
Y3514000D01*
Y3494006D01*
X7170045D01*
X7210032Y3480677D02*
X7216697Y3474013D01*
X7230026D01*
X7236690Y3480677D01*
Y3507336D01*
X7230026Y3514000D01*
X7216697D01*
X7210032Y3507336D01*
Y3480677D01*
X7090071Y3714000D02*
X7103400D01*
X7096735D01*
Y3674013D01*
X7090071Y3680677D01*
X7150052Y3674013D02*
X7136723Y3680677D01*
X7123394Y3694006D01*
Y3707336D01*
X7130058Y3714000D01*
X7143387D01*
X7150052Y3707336D01*
Y3700671D01*
X7143387Y3694006D01*
X7123394D01*
X7203368Y3714000D02*
Y3687342D01*
X7216697Y3674013D01*
X7230026Y3687342D01*
Y3714000D01*
Y3694006D01*
X7203368D01*
X7270013Y3714000D02*
X7243355D01*
X7270013Y3687342D01*
Y3680677D01*
X7263348Y3674013D01*
X7250019D01*
X7243355Y3680677D01*
X7090071Y3814000D02*
X7103400D01*
X7096735D01*
Y3774013D01*
X7090071Y3780677D01*
X7150052Y3774013D02*
X7123394D01*
Y3794006D01*
X7136723Y3787342D01*
X7143387D01*
X7150052Y3794006D01*
Y3807336D01*
X7143387Y3814000D01*
X7130058D01*
X7123394Y3807336D01*
X7203368Y3814000D02*
Y3787342D01*
X7216697Y3774013D01*
X7230026Y3787342D01*
Y3814000D01*
Y3794006D01*
X7203368D01*
X7243355Y3814000D02*
X7256684D01*
X7250019D01*
Y3774013D01*
X7243355Y3780677D01*
X7090071Y3614000D02*
X7103400D01*
X7096735D01*
Y3574013D01*
X7090071Y3580677D01*
X7123394Y3574013D02*
X7150052D01*
Y3580677D01*
X7123394Y3607336D01*
Y3614000D01*
X7203368D02*
Y3587342D01*
X7216697Y3574013D01*
X7230026Y3587342D01*
Y3614000D01*
Y3594006D01*
X7203368D01*
X7243355Y3580677D02*
X7250019Y3574013D01*
X7263348D01*
X7270013Y3580677D01*
Y3587342D01*
X7263348Y3594006D01*
X7256684D01*
X7263348D01*
X7270013Y3600671D01*
Y3607336D01*
X7263348Y3614000D01*
X7250019D01*
X7243355Y3607336D01*
X7090071Y3914000D02*
X7103400D01*
X7096735D01*
Y3874013D01*
X7090071Y3880677D01*
X7143387Y3914000D02*
Y3874013D01*
X7123394Y3894006D01*
X7150052D01*
X7203368Y3914000D02*
Y3887342D01*
X7216697Y3874013D01*
X7230026Y3887342D01*
Y3914000D01*
Y3894006D01*
X7203368D01*
X7243355Y3880677D02*
X7250019Y3874013D01*
X7263348D01*
X7270013Y3880677D01*
Y3907336D01*
X7263348Y3914000D01*
X7250019D01*
X7243355Y3907336D01*
Y3880677D01*
X7410032Y2814000D02*
Y2774013D01*
X7430026D01*
X7436690Y2780677D01*
Y2794006D01*
X7430026Y2800671D01*
X7410032D01*
X7423361D02*
X7436690Y2814000D01*
X7450019Y2774013D02*
X7476677Y2814000D01*
Y2774013D02*
X7450019Y2814000D01*
X7490007D02*
X7503336D01*
X7496671D01*
Y2774013D01*
X7490007Y2780677D01*
X7563316D02*
X7569981Y2774013D01*
X7583310D01*
X7589974Y2780677D01*
Y2807336D01*
X7583310Y2814000D01*
X7569981D01*
X7563316Y2807336D01*
Y2780677D01*
X7350052Y3180677D02*
X7343387Y3174013D01*
X7330058D01*
X7323394Y3180677D01*
Y3207336D01*
X7330058Y3214000D01*
X7343387D01*
X7350052Y3207336D01*
X7363381Y3214000D02*
Y3187342D01*
X7376710Y3174013D01*
X7390039Y3187342D01*
Y3214000D01*
Y3194006D01*
X7363381D01*
X7403368Y3214000D02*
Y3174013D01*
X7430026Y3214000D01*
Y3174013D01*
X7443355Y3214000D02*
Y3174013D01*
X7463348D01*
X7470013Y3180677D01*
Y3194006D01*
X7463348Y3200671D01*
X7443355D01*
X7456684D02*
X7470013Y3214000D01*
X7483342Y3174013D02*
X7510000Y3214000D01*
Y3174013D02*
X7483342Y3214000D01*
X7583310D02*
Y3174013D01*
X7563316Y3194006D01*
X7589974D01*
X7423361Y2874013D02*
X7450019D01*
X7436690D01*
Y2914000D01*
X7463348Y2874013D02*
X7490006Y2914000D01*
Y2874013D02*
X7463348Y2914000D01*
X7503336D02*
X7516664D01*
X7510000D01*
Y2874013D01*
X7503336Y2880677D01*
X7576645Y2914000D02*
X7589974D01*
X7583310D01*
Y2874013D01*
X7576645Y2880677D01*
X7350052Y3080677D02*
X7343387Y3074013D01*
X7330058D01*
X7323394Y3080677D01*
Y3107336D01*
X7330058Y3114000D01*
X7343387D01*
X7350052Y3107336D01*
X7363381Y3114000D02*
Y3087342D01*
X7376710Y3074013D01*
X7390039Y3087342D01*
Y3114000D01*
Y3094006D01*
X7363381D01*
X7403368Y3114000D02*
Y3074013D01*
X7430026Y3114000D01*
Y3074013D01*
X7443355D02*
X7470013D01*
X7456684D01*
Y3114000D01*
X7483342Y3074013D02*
X7510000Y3114000D01*
Y3074013D02*
X7483342Y3114000D01*
X7563316Y3080677D02*
X7569981Y3074013D01*
X7583310D01*
X7589974Y3080677D01*
Y3087342D01*
X7583310Y3094006D01*
X7576645D01*
X7583310D01*
X7589974Y3100671D01*
Y3107336D01*
X7583310Y3114000D01*
X7569981D01*
X7563316Y3107336D01*
X7589974Y3014000D02*
X7563316D01*
X7589974Y2987342D01*
Y2980677D01*
X7583310Y2974013D01*
X7569981D01*
X7563316Y2980677D01*
X7510000Y2680677D02*
X7503336Y2674013D01*
X7490007D01*
X7483342Y2680677D01*
Y2707336D01*
X7490007Y2714000D01*
X7503336D01*
X7510000Y2707336D01*
Y2694006D01*
X7496671D01*
X7523329Y2714000D02*
Y2674013D01*
X7549987Y2714000D01*
Y2674013D01*
X7563316D02*
Y2714000D01*
X7583310D01*
X7589974Y2707336D01*
Y2680677D01*
X7583310Y2674013D01*
X7563316D01*
X7431658Y3785677D02*
X7424993Y3779013D01*
X7411664D01*
X7405000Y3785677D01*
Y3812336D01*
X7411664Y3819000D01*
X7424993D01*
X7431658Y3812336D01*
X7471645Y3785677D02*
X7464981Y3779013D01*
X7451652D01*
X7444987Y3785677D01*
Y3792342D01*
X7451652Y3799006D01*
X7464981D01*
X7471645Y3805671D01*
Y3812336D01*
X7464981Y3819000D01*
X7451652D01*
X7444987Y3812336D01*
X7524961Y3819000D02*
X7538290D01*
X7531626D01*
Y3779013D01*
X7524961Y3785677D01*
X7558284D02*
X7564948Y3779013D01*
X7578277D01*
X7584942Y3785677D01*
Y3812336D01*
X7578277Y3819000D01*
X7564948D01*
X7558284Y3812336D01*
Y3785677D01*
X7350000Y3914000D02*
Y3874013D01*
X7363329Y3887342D01*
X7376658Y3874013D01*
Y3914000D01*
X7409981Y3874013D02*
X7396652D01*
X7389987Y3880677D01*
Y3907336D01*
X7396652Y3914000D01*
X7409981D01*
X7416645Y3907336D01*
Y3880677D01*
X7409981Y3874013D01*
X7456632Y3880677D02*
X7449968Y3874013D01*
X7436639D01*
X7429974Y3880677D01*
Y3887342D01*
X7436639Y3894006D01*
X7449968D01*
X7456632Y3900671D01*
Y3907336D01*
X7449968Y3914000D01*
X7436639D01*
X7429974Y3907336D01*
X7469961Y3874013D02*
X7483290D01*
X7476626D01*
Y3914000D01*
X7469961D01*
X7483290D01*
X7543271D02*
X7556600D01*
X7549935D01*
Y3874013D01*
X7543271Y3880677D01*
X7576594Y3914000D02*
X7589923D01*
X7583258D01*
Y3874013D01*
X7576594Y3880677D01*
X7589974Y3374013D02*
X7576645Y3380677D01*
X7563316Y3394006D01*
Y3407336D01*
X7569981Y3414000D01*
X7583310D01*
X7589974Y3407336D01*
Y3400671D01*
X7583310Y3394006D01*
X7563316D01*
X7403368Y3514000D02*
Y3474013D01*
X7423361D01*
X7430026Y3480677D01*
Y3494006D01*
X7423361Y3500671D01*
X7403368D01*
X7416697D02*
X7430026Y3514000D01*
X7443355Y3474013D02*
X7470013Y3514000D01*
Y3474013D02*
X7443355Y3514000D01*
X7510000D02*
X7483342D01*
X7510000Y3487342D01*
Y3480677D01*
X7503336Y3474013D01*
X7490007D01*
X7483342Y3480677D01*
X7563316Y3474013D02*
X7589974D01*
Y3480677D01*
X7563316Y3507336D01*
Y3514000D01*
X7589974Y3274013D02*
X7563316D01*
Y3294006D01*
X7576645Y3287342D01*
X7583310D01*
X7589974Y3294006D01*
Y3307336D01*
X7583310Y3314000D01*
X7569981D01*
X7563316Y3307336D01*
X7403368Y3574013D02*
X7430026D01*
X7416697D01*
Y3614000D01*
X7443355Y3574013D02*
X7470013Y3614000D01*
Y3574013D02*
X7443355Y3614000D01*
X7510000D02*
X7483342D01*
X7510000Y3587342D01*
Y3580677D01*
X7503336Y3574013D01*
X7490007D01*
X7483342Y3580677D01*
X7563316D02*
X7569981Y3574013D01*
X7583310D01*
X7589974Y3580677D01*
Y3587342D01*
X7583310Y3594006D01*
X7589974Y3600671D01*
Y3607336D01*
X7583310Y3614000D01*
X7569981D01*
X7563316Y3607336D01*
Y3600671D01*
X7569981Y3594006D01*
X7563316Y3587342D01*
Y3580677D01*
X7569981Y3594006D02*
X7583310D01*
D44*
X6990000Y2644000D02*
Y4044000D01*
Y2644000D02*
Y4044000D01*
Y2644000D02*
X7690000D01*
X6990000D02*
X7690000D01*
X6990000Y4044000D02*
X7690000D01*
X6990000D02*
X7690000D01*
Y2644000D02*
Y4044000D01*
Y2644000D02*
Y4044000D01*
D45*
X7310000Y2578992D02*
X7290007D01*
X7260016Y2593987D02*
X7270013D01*
X7265015D01*
Y2568995D01*
X7270013Y2563997D01*
X7275011D01*
X7280010Y2568995D01*
X7250019Y2583990D02*
Y2568995D01*
X7245021Y2563997D01*
X7230026D01*
Y2583990D01*
X7220029Y2563997D02*
X7210032D01*
X7215031D01*
Y2593987D01*
X7220029D01*
X7195037Y2583990D02*
Y2568995D01*
X7190039Y2563997D01*
X7175044D01*
Y2558998D01*
X7180042Y2554000D01*
X7185040D01*
X7175044Y2563997D02*
Y2583990D01*
X7115063Y2563997D02*
X7135057D01*
X7115063Y2583990D01*
Y2588989D01*
X7120061Y2593987D01*
X7130058D01*
X7135057Y2588989D01*
X7105066D02*
X7100068Y2593987D01*
X7090071D01*
X7085073Y2588989D01*
Y2568995D01*
X7090071Y2563997D01*
X7100068D01*
X7105066Y2568995D01*
Y2588989D01*
X7055083Y2563997D02*
X7075076D01*
X7055083Y2583990D01*
Y2588989D01*
X7060081Y2593987D01*
X7070078D01*
X7075076Y2588989D01*
X7045086D02*
X7040087Y2593987D01*
X7030091D01*
X7025092Y2588989D01*
Y2583990D01*
X7030091Y2578992D01*
X7035089D01*
X7030091D01*
X7025092Y2573994D01*
Y2568995D01*
X7030091Y2563997D01*
X7040087D01*
X7045086Y2568995D01*
%TF.MD5,4d7860c252f137ece8663ded5381e5f0*%
M02*
