%TF.GenerationSoftware,Altium Limited,Altium Designer,23.6.0 (18)*%
G04 Layer_Physical_Order=1*
G04 Layer_Color=255*
%FSLAX26Y26*%
%MOIN*%
%TF.SameCoordinates,9B35E0B2-5C19-4761-B797-B6A5D59CF105*%
%TF.FilePolarity,Positive*%
%TF.FileFunction,Copper,L1,Top,Signal*%
%TF.Part,Single*%
G01*
G75*
%TA.AperFunction,SMDPad,CuDef*%
%ADD10R,0.038976X0.030709*%
G04:AMPARAMS|DCode=11|XSize=74.803mil|YSize=23.622mil|CornerRadius=2.953mil|HoleSize=0mil|Usage=FLASHONLY|Rotation=90.000|XOffset=0mil|YOffset=0mil|HoleType=Round|Shape=RoundedRectangle|*
%AMROUNDEDRECTD11*
21,1,0.074803,0.017716,0,0,90.0*
21,1,0.068897,0.023622,0,0,90.0*
1,1,0.005906,0.008858,0.034449*
1,1,0.005906,0.008858,-0.034449*
1,1,0.005906,-0.008858,-0.034449*
1,1,0.005906,-0.008858,0.034449*
%
%ADD11ROUNDEDRECTD11*%
%ADD12R,0.047244X0.039370*%
%TA.AperFunction,Conductor*%
%ADD13C,0.008000*%
%TA.AperFunction,ComponentPad*%
%ADD14C,0.073228*%
%ADD15R,0.073228X0.073228*%
%ADD16C,0.160000*%
%ADD17C,0.120000*%
%ADD18R,0.064961X0.064961*%
%ADD19C,0.064961*%
%ADD20R,0.053150X0.053150*%
%ADD21C,0.053150*%
%ADD22C,0.060000*%
%ADD23R,0.060000X0.060000*%
%ADD24R,0.060000X0.060000*%
%ADD25C,0.052677*%
%ADD26R,0.052677X0.052677*%
%ADD27C,0.160079*%
%ADD28C,0.062008*%
%ADD29R,0.062008X0.062008*%
%ADD30C,0.059370*%
%ADD31R,0.059370X0.059370*%
%ADD32R,0.059055X0.059055*%
%ADD33C,0.059055*%
%ADD34R,0.059055X0.059055*%
%ADD35C,0.066535*%
%ADD36C,0.188976*%
%ADD37R,0.066535X0.066535*%
%TA.AperFunction,ViaPad*%
%ADD38C,0.030000*%
D10*
X7831000Y2587560D02*
D03*
Y2532440D02*
D03*
X8155000Y2587560D02*
D03*
Y2532440D02*
D03*
X8411000Y2587560D02*
D03*
Y2532440D02*
D03*
X8721000Y2587560D02*
D03*
Y2532440D02*
D03*
D11*
X7811000Y2921734D02*
D03*
X7861000D02*
D03*
X7911000D02*
D03*
X7961000D02*
D03*
X8011000D02*
D03*
X8061000D02*
D03*
X8111000D02*
D03*
Y2728426D02*
D03*
X8061000D02*
D03*
X8011000D02*
D03*
X7961000D02*
D03*
X7911000D02*
D03*
X7861000D02*
D03*
X7811000D02*
D03*
X8361000D02*
D03*
X8411000D02*
D03*
X8461000D02*
D03*
X8511000D02*
D03*
X8661000D02*
D03*
Y2921734D02*
D03*
X8611000D02*
D03*
X8411000D02*
D03*
X8361000D02*
D03*
X8511000D02*
D03*
X8461000D02*
D03*
X8561000D02*
D03*
X8611000Y2728426D02*
D03*
X8561000D02*
D03*
D12*
X7959536Y2587952D02*
D03*
X8026464Y2536770D02*
D03*
X8529536Y2587952D02*
D03*
X8596464Y2536770D02*
D03*
X7959536D02*
D03*
X8026464Y2587952D02*
D03*
X8596464D02*
D03*
X8529536Y2536770D02*
D03*
D13*
X8461000Y2921734D02*
Y2947325D01*
X8407000Y3001325D02*
X8461000Y2947325D01*
X8407000Y3001325D02*
Y3004000D01*
X8015209Y3025209D02*
X8025000Y3035000D01*
X8551500D02*
X8561000Y3025500D01*
X8025000Y3035000D02*
X8551500D01*
X7910500Y2922234D02*
Y2998500D01*
X7910000Y2999000D02*
X7910500Y2998500D01*
X8411000Y2647000D02*
Y2728426D01*
X8353189Y2758875D02*
X8361000Y2751064D01*
Y2728426D02*
Y2751064D01*
X8327125Y2758875D02*
X8353189D01*
X8285000Y2801000D02*
X8327125Y2758875D01*
X8247000Y2836000D02*
X8375000D01*
X8209000Y2798000D02*
X8247000Y2836000D01*
X8410000Y2838000D02*
X8410500Y2838500D01*
Y2921234D02*
X8411000Y2921734D01*
X8410500Y2838500D02*
Y2921234D01*
X8511000Y2921734D02*
X8513500Y2919234D01*
Y2839500D02*
Y2919234D01*
Y2839500D02*
X8516000Y2837000D01*
X8376645Y2836000D02*
X8400645Y2812000D01*
X8526355D02*
X8550355Y2836000D01*
X8678000D01*
X8400645Y2812000D02*
X8526355D01*
X8375000Y2836000D02*
X8376645D01*
X8678000D02*
X8692000Y2850000D01*
X7961500Y2841500D02*
Y2921234D01*
X7836000Y2880000D02*
X7900000Y2816000D01*
X7972355D01*
X7988000Y2831645D01*
X7961000Y2921734D02*
X7961500Y2921234D01*
X7988000Y2831645D02*
Y2940322D01*
X7961500Y2841500D02*
X7962000Y2841000D01*
X7884355Y2798000D02*
X8209000D01*
X7811000Y2871355D02*
X7884355Y2798000D01*
X7961000Y2921734D02*
Y3075000D01*
X7986000Y3051000D02*
X8623240Y3688240D01*
X7986000Y2942322D02*
Y3051000D01*
Y2942322D02*
X7988000Y2940322D01*
X7811000Y2921734D02*
Y3002000D01*
X7820000Y2821047D02*
Y2827000D01*
X7811000Y2728426D02*
Y2812047D01*
X7820000Y2821047D01*
X7811000Y2871355D02*
Y2921734D01*
X7836000Y2880000D02*
Y3012355D01*
X8011000Y2921734D02*
Y3000000D01*
X8015209Y3004209D01*
Y3025209D01*
X7910500Y2922234D02*
X7911000Y2921734D01*
X7765000Y3000000D02*
X7792000Y3027000D01*
X7821355D02*
X7836000Y3012355D01*
X7792000Y3027000D02*
X7821355D01*
X8582812Y2814000D02*
X8597000D01*
X8048500Y2778000D02*
X8110000D01*
X7898312D02*
X8048500D01*
X9249000Y2155456D02*
Y2437500D01*
X7753000Y4092000D02*
Y4128240D01*
X8692000Y2720000D02*
Y2850000D01*
X8561000Y2921734D02*
Y3025500D01*
X7831000Y2587560D02*
X7835134D01*
X7882812Y2635238D01*
Y2762500D01*
X7898312Y2778000D01*
X8110000D02*
X8111000Y2777000D01*
Y2728426D02*
Y2777000D01*
X8361000Y2850000D02*
Y2921734D01*
Y2850000D02*
X8375000Y2836000D01*
X8411000Y2587560D02*
X8415134D01*
X8482812Y2655238D01*
Y2761862D01*
X8496776Y2775828D01*
X8544640D01*
X8582812Y2814000D01*
X8659500D02*
X8661000Y2812500D01*
X9311000Y3398166D02*
X9382000Y3469166D01*
X9249000Y2923000D02*
X9311000Y2985000D01*
X9110638Y2017094D02*
X9249000Y2155456D01*
X7812000Y3451080D02*
X7820000Y3459080D01*
X7753000Y4092000D02*
X7820000Y4025000D01*
X7699000Y4313000D02*
Y4350000D01*
X7545944Y4328000D02*
X7589944Y4372000D01*
X7820000Y3459080D02*
Y4025000D01*
X7699000Y4313000D02*
X7753000Y4259000D01*
X7677000Y4372000D02*
X7699000Y4350000D01*
X7589944Y4372000D02*
X7677000D01*
X7753000Y4128240D02*
Y4259000D01*
Y4128240D02*
X8093000Y3788240D01*
X8212000Y3451080D02*
X8262000Y3501080D01*
Y4077000D01*
X8692000Y2850000D02*
Y3141236D01*
X8665000Y3294000D02*
Y3447764D01*
X7831000Y2532440D02*
X7916310Y2617750D01*
X7925914D01*
X8011000Y2702836D01*
X6997000Y2189000D02*
X7037000Y2149000D01*
X6997000Y2189000D02*
Y2751000D01*
X7040000Y2794000D01*
X7420500Y1992000D02*
X7671528D01*
X7790528Y2111000D01*
Y2575000D01*
X7803088Y2587560D01*
X7831000D01*
X7959536Y2587952D02*
X7967000D01*
X8018182Y2536770D01*
X8026464D01*
X8150670D01*
X8155000Y2532440D01*
X7959536Y2587952D02*
Y2614036D01*
X8033000Y2687500D01*
Y2762500D01*
X8048500Y2778000D01*
X8155000Y2532440D02*
X8255000D01*
X8310120Y2587560D01*
X8411000D01*
X8529536Y2587952D02*
X8537000D01*
X8588182Y2536770D01*
X8596464D01*
Y2048000D02*
Y2536770D01*
X8509654Y1961190D02*
X8596464Y2048000D01*
Y2536770D02*
X8716670D01*
X8721000Y2532440D01*
X8529536Y2587952D02*
Y2608512D01*
X8583000Y2661976D01*
Y2800000D01*
X8597000Y2814000D01*
X8659500D01*
X8661000Y2728426D02*
Y2812500D01*
X8216874Y1668410D02*
X8509654Y1961190D01*
X8113796Y1668410D02*
X8216874D01*
X8721000Y2532440D02*
X8779000D01*
X8800440Y2511000D01*
X8879000D01*
X8893000Y2525000D01*
Y2619000D01*
X8856000Y2656000D02*
X8893000Y2619000D01*
X8856000Y2656000D02*
X8893000Y2693000D01*
Y2818000D01*
X8887000Y2824000D02*
X8893000Y2818000D01*
X8887000Y2824000D02*
Y2989000D01*
X8939000Y3041000D01*
Y3347000D01*
X8892000Y3394000D02*
X8939000Y3347000D01*
X9084000Y3469166D02*
Y3881836D01*
X8977596Y3988240D02*
X9084000Y3881836D01*
X9559000Y2719000D02*
X9596000Y2756000D01*
X9559000Y2619000D02*
Y2719000D01*
Y2619000D02*
X9572000Y2606000D01*
X9614500D01*
X9633000Y2587500D01*
Y2100678D02*
Y2587500D01*
X9493512Y1961190D02*
X9633000Y2100678D01*
X8419960Y4103578D02*
X8535298Y3988240D01*
X8419960Y4103578D02*
Y4272094D01*
X8093000Y3988240D02*
X8193000Y3888240D01*
X8225298D01*
X7340000Y3994000D02*
Y4040242D01*
X7108148Y4272094D02*
X7340000Y4040242D01*
X7255500Y1992000D02*
X7350500Y1897000D01*
X7747410D01*
X7976000Y1668410D01*
X9129000Y2519000D02*
X9166000Y2556000D01*
X9129000Y2437500D02*
Y2519000D01*
Y2437500D02*
X9147500Y2419000D01*
X9230500D01*
X9249000Y2437500D01*
Y2923000D01*
X9311000Y2985000D02*
Y3398166D01*
X9056110Y1905284D02*
Y2546110D01*
X9166000Y2656000D01*
X9127000Y2695000D02*
X9166000Y2656000D01*
X9127000Y2695000D02*
Y2895000D01*
X7812000Y3151080D02*
X8056000Y3395080D01*
Y3725000D01*
X8081000Y3750000D01*
X8113000D01*
X8129340Y3766340D01*
Y3851900D01*
X8093000Y3888240D02*
X8129340Y3851900D01*
X8010780Y3970460D02*
X8093000Y3888240D01*
X7985650Y3970460D02*
X8010780D01*
X7818582Y4137528D02*
X7985650Y3970460D01*
X7818582Y4137528D02*
Y4216188D01*
X8977596Y3788240D02*
X9045000Y3720836D01*
Y3437500D02*
Y3720836D01*
Y3437500D02*
X9057500Y3425000D01*
X9136500D01*
X9217500Y3506000D01*
X9494166D01*
X9531000Y3469166D01*
X9568000Y3432166D01*
Y3047000D02*
Y3432166D01*
X9504000Y2983000D02*
X9568000Y3047000D01*
X9504000Y2648000D02*
Y2983000D01*
Y2648000D02*
X9596000Y2556000D01*
X8212000Y3151080D02*
Y3232000D01*
X8631900Y3651900D01*
X8687500D01*
X8703936Y3668336D01*
Y3710064D01*
X8683000Y3731000D02*
X8703936Y3710064D01*
X8650000Y3731000D02*
X8683000D01*
X8631000Y3750000D02*
X8650000Y3731000D01*
X8631000Y3750000D02*
Y3812500D01*
X8643500Y3825000D01*
X8914356D01*
X8977596Y3888240D01*
X8941000Y3924836D02*
X8977596Y3888240D01*
X8941000Y3924836D02*
Y4012500D01*
X8953500Y4025000D01*
X9014000D01*
X9341000Y3698000D01*
Y3587500D02*
Y3698000D01*
Y3587500D02*
X9358500Y3570000D01*
X9571000D01*
X9582000Y3559000D01*
Y2933000D02*
Y3559000D01*
X9544000Y2895000D02*
X9582000Y2933000D01*
X9544000Y2895000D02*
X9636000Y2803000D01*
Y2696000D02*
Y2803000D01*
X9596000Y2656000D02*
X9636000Y2696000D01*
X7040000Y2694000D02*
X7137000Y2597000D01*
Y2149000D02*
Y2597000D01*
X8692000Y2720000D02*
X8856000Y2556000D01*
X8665000Y3168236D02*
X8692000Y3141236D01*
X8665000Y3168236D02*
X8717936Y3221172D01*
Y3737900D01*
X8667596Y3788240D02*
X8717936Y3737900D01*
X7640000Y2994000D02*
X7680000Y3034000D01*
Y3534000D01*
X7640000Y2794000D02*
X7764000D01*
X7765000Y2795000D01*
Y3000000D01*
X8623240Y3688240D02*
X8667596D01*
X7640000Y2894000D02*
X7705000Y2959000D01*
Y3293000D01*
X8192000D02*
X8587000Y3688000D01*
Y3907644D01*
X8667596Y3988240D01*
X7040000Y3094000D02*
X7209000Y3263000D01*
Y3631000D01*
X7494000Y3916000D01*
Y4025000D01*
X7506500Y4037500D01*
X7733740D01*
X7783000Y3988240D01*
X7537000Y2149000D02*
Y3561000D01*
X7590000Y3614000D01*
Y3844000D01*
X7640000Y3894000D01*
X7722000Y3812000D01*
Y3633000D02*
Y3812000D01*
Y3633000D02*
X7772000Y3583000D01*
Y3122000D02*
Y3583000D01*
Y3122000D02*
X7787500Y3106500D01*
X7929500D01*
X7961000Y3075000D01*
X7437000Y2149000D02*
Y3791000D01*
X7640000Y3994000D01*
X7190000Y2296000D02*
X7337000Y2149000D01*
X7190000Y2296000D02*
Y2998000D01*
X7148000Y3040000D02*
X7190000Y2998000D01*
X6987000Y3040000D02*
X7148000D01*
X6986000Y3041000D02*
X6987000Y3040000D01*
X6986000Y3041000D02*
Y3940000D01*
X7040000Y3994000D01*
X7861000Y2668000D02*
Y2728426D01*
X7834000Y2641000D02*
X7861000Y2668000D01*
X7600000Y2186000D02*
X7637000Y2149000D01*
X7600000Y2186000D02*
Y2740000D01*
X7586000Y2754000D02*
X7600000Y2740000D01*
X7586000Y2754000D02*
Y2848000D01*
X7600000Y2862000D01*
Y3554000D01*
X7640000Y3594000D01*
X7737000Y2149000D02*
Y2680500D01*
X7663500Y2754000D02*
X7737000Y2680500D01*
X7612500Y2754000D02*
X7663500D01*
X7600000Y2766500D02*
X7612500Y2754000D01*
X7600000Y2766500D02*
Y2821500D01*
X7628500Y2850000D01*
X7717500D01*
X7730000Y2862500D01*
Y3604000D01*
X7640000Y3694000D02*
X7730000Y3604000D01*
X7837000Y2113944D02*
Y2149000D01*
X7639056Y1916000D02*
X7837000Y2113944D01*
X7362500Y1916000D02*
X7639056D01*
X7350000Y1928500D02*
X7362500Y1916000D01*
X7350000Y1928500D02*
Y2059000D01*
X7362500Y2071500D01*
X7438500D01*
X7492000Y2125000D01*
Y3794000D01*
X7040000Y3894000D02*
X7080000Y3854000D01*
Y3171500D02*
Y3854000D01*
X7062500Y3154000D02*
X7080000Y3171500D01*
X7032500Y3154000D02*
X7062500D01*
X7000000Y3121500D02*
X7032500Y3154000D01*
X7000000Y3066500D02*
Y3121500D01*
Y3066500D02*
X7012500Y3054000D01*
X7245500D01*
X7262000Y3037500D01*
Y2363000D02*
Y3037500D01*
Y2363000D02*
X7377000Y2248000D01*
Y2096500D02*
Y2248000D01*
X6944000Y2394000D02*
Y4015500D01*
X6962500Y4034000D01*
X7062500D01*
X7080000Y4016500D01*
Y3971500D02*
Y4016500D01*
X7050000Y3941500D02*
X7080000Y3971500D01*
X7012500Y3941500D02*
X7050000D01*
X7000000Y3929000D02*
X7012500Y3941500D01*
X7000000Y3834000D02*
Y3929000D01*
Y3834000D02*
X7040000Y3794000D01*
X7572000Y2247000D02*
Y3448000D01*
X9444000Y2895000D02*
Y3027834D01*
X9531000Y3114834D01*
X8093000Y3688240D02*
X8143340Y3738580D01*
Y3914660D01*
X8107000Y3951000D02*
X8143340Y3914660D01*
X8057000Y3951000D02*
X8107000D01*
X7995000Y4013000D02*
X8057000Y3951000D01*
X8977596Y3025000D02*
Y3688240D01*
Y3025000D02*
X8996596Y3006000D01*
X9201500D01*
X9220000Y2987500D01*
Y2510000D02*
Y2987500D01*
X9166000Y2456000D02*
X9220000Y2510000D01*
X7861000Y2921734D02*
Y3081500D01*
X8596464Y2587952D02*
X8720608D01*
X8721000Y2587560D01*
X8596464Y2587952D02*
Y2642062D01*
X8611000Y2656598D01*
Y2728426D01*
X8411000Y2532440D02*
X8525206D01*
X8529536Y2536770D01*
X8525600D02*
X8529536D01*
X8504102Y2558266D02*
X8525600Y2536770D01*
X8501772Y2558266D02*
X8504102D01*
X8495914Y2564124D02*
X8501772Y2558266D01*
X8495914Y2564124D02*
Y2637750D01*
X8561000Y2702836D01*
Y2728426D01*
X8770000Y4361166D02*
X9121000Y4010166D01*
X8770000Y4361166D02*
Y4494000D01*
X9035666Y4237500D02*
X9263000Y4010166D01*
X9035666Y4237500D02*
Y4494000D01*
X9301334D02*
X9405000Y4390334D01*
Y4010166D02*
Y4390334D01*
X9547000Y4010166D02*
X9567000Y4030166D01*
Y4494000D01*
X7955600Y2536770D02*
X7959536D01*
X7934102Y2558266D02*
X7955600Y2536770D01*
X7931772Y2558266D02*
X7934102D01*
X7925914Y2564124D02*
X7931772Y2558266D01*
X7925914Y2564124D02*
Y2617750D01*
X8011000Y2702836D02*
Y2728426D01*
X8026464Y2587952D02*
X8154608D01*
X8155000Y2587560D01*
X8026464Y2587952D02*
Y2632062D01*
X8061000Y2666598D01*
Y2728426D01*
D14*
X8892000Y3294000D02*
D03*
Y3394000D02*
D03*
D15*
Y3194000D02*
D03*
D16*
X7090000Y1705000D02*
D03*
X7421000D02*
D03*
D17*
X7090500Y1992000D02*
D03*
X7255500D02*
D03*
X7420500D02*
D03*
D18*
X7838204Y1668410D02*
D03*
D19*
Y1944000D02*
D03*
X7976000D02*
D03*
X8113796Y1668410D02*
D03*
X7976000D02*
D03*
X8113796Y1944000D02*
D03*
D20*
X9084000Y3114834D02*
D03*
X9121000Y3655834D02*
D03*
X9233000Y3114834D02*
D03*
X9263000Y3655834D02*
D03*
X9382000Y3114834D02*
D03*
X9405000Y3655834D02*
D03*
X9531000Y3114834D02*
D03*
X9547000Y3655834D02*
D03*
D21*
X9084000Y3469166D02*
D03*
X9121000Y4010166D02*
D03*
X9233000Y3469164D02*
D03*
X9263000Y4010166D02*
D03*
X9382000Y3469166D02*
D03*
X9405000Y4010166D02*
D03*
X9531000Y3469166D02*
D03*
X9547000Y4010166D02*
D03*
D22*
X7040000Y3094000D02*
D03*
Y3194000D02*
D03*
Y2794000D02*
D03*
Y2994000D02*
D03*
Y2894000D02*
D03*
Y3394000D02*
D03*
Y3294000D02*
D03*
Y2694000D02*
D03*
X7140000Y2794000D02*
D03*
X7040000Y3594000D02*
D03*
Y3694000D02*
D03*
Y3494000D02*
D03*
Y3894000D02*
D03*
Y3994000D02*
D03*
Y3794000D02*
D03*
X7140000Y3994000D02*
D03*
X7240000D02*
D03*
X7385000Y2679000D02*
D03*
X7640000Y2994000D02*
D03*
Y2694000D02*
D03*
Y2894000D02*
D03*
Y2794000D02*
D03*
Y3094000D02*
D03*
Y3294000D02*
D03*
Y3194000D02*
D03*
X7550000Y3734000D02*
D03*
X7340000Y3994000D02*
D03*
X7440000D02*
D03*
X7540000D02*
D03*
X7640000Y3494000D02*
D03*
Y3394000D02*
D03*
Y3994000D02*
D03*
Y3894000D02*
D03*
Y3594000D02*
D03*
Y3794000D02*
D03*
Y3694000D02*
D03*
D23*
X7305000Y2679000D02*
D03*
D24*
X7550000Y3654000D02*
D03*
D25*
X7783000Y3888240D02*
D03*
Y3788240D02*
D03*
Y3688240D02*
D03*
X8093000Y3988240D02*
D03*
Y3688240D02*
D03*
Y3888240D02*
D03*
Y3788240D02*
D03*
X8225298Y3888240D02*
D03*
Y3788240D02*
D03*
Y3688240D02*
D03*
X8535298Y3988240D02*
D03*
Y3688240D02*
D03*
Y3888240D02*
D03*
Y3788240D02*
D03*
X8667596Y3888240D02*
D03*
Y3788240D02*
D03*
Y3688240D02*
D03*
X8977596Y3988240D02*
D03*
Y3688240D02*
D03*
Y3888240D02*
D03*
Y3788240D02*
D03*
X8856000Y2656000D02*
D03*
Y2556000D02*
D03*
Y2456000D02*
D03*
X9166000Y2756000D02*
D03*
Y2456000D02*
D03*
Y2656000D02*
D03*
Y2556000D02*
D03*
X9286000Y2656000D02*
D03*
Y2556000D02*
D03*
Y2456000D02*
D03*
X9596000Y2756000D02*
D03*
Y2456000D02*
D03*
Y2656000D02*
D03*
Y2556000D02*
D03*
D26*
X7783000Y3988240D02*
D03*
X8225298D02*
D03*
X8667596D02*
D03*
X8856000Y2756000D02*
D03*
X9286000D02*
D03*
D27*
X9493512Y1961190D02*
D03*
X8509654D02*
D03*
D28*
X8838000Y1905284D02*
D03*
X8947056D02*
D03*
X9056110D02*
D03*
X9165166D02*
D03*
X8783472Y2017094D02*
D03*
X8892528D02*
D03*
X9001582D02*
D03*
X9110638D02*
D03*
D29*
X9219692D02*
D03*
D30*
X9301334Y4494000D02*
D03*
X9035666D02*
D03*
X8770000D02*
D03*
X9567000D02*
D03*
X7812000Y3451080D02*
D03*
Y3151080D02*
D03*
X8212000D02*
D03*
Y3451080D02*
D03*
X8512000Y3151080D02*
D03*
X8012000Y3451080D02*
D03*
Y3151080D02*
D03*
D31*
X9201334Y4494000D02*
D03*
X8935666D02*
D03*
X8670000D02*
D03*
X9467000D02*
D03*
X8512000Y3451080D02*
D03*
D32*
X8665000Y3168236D02*
D03*
D33*
Y3447764D02*
D03*
X9027000Y2895000D02*
D03*
X8927000D02*
D03*
X9444000D02*
D03*
X9344000D02*
D03*
X8937000Y2149000D02*
D03*
X8837000D02*
D03*
X8737000D02*
D03*
X8637000D02*
D03*
X8537000D02*
D03*
X8437000D02*
D03*
X8337000D02*
D03*
X8237000D02*
D03*
X8137000D02*
D03*
X8037000D02*
D03*
X7937000D02*
D03*
X7837000D02*
D03*
X7737000D02*
D03*
X7637000D02*
D03*
X7537000D02*
D03*
X7437000D02*
D03*
X7337000D02*
D03*
X7237000D02*
D03*
X7137000D02*
D03*
D34*
X9127000Y2895000D02*
D03*
X9544000D02*
D03*
X7037000Y2149000D02*
D03*
D35*
X7545944Y4328000D02*
D03*
X7818582Y4216188D02*
D03*
X7600472D02*
D03*
X7709526D02*
D03*
X8145746D02*
D03*
X8091220Y4328000D02*
D03*
X8036692Y4216188D02*
D03*
X7982164Y4328000D02*
D03*
X7927638Y4216188D02*
D03*
X7873110Y4328000D02*
D03*
X7764054D02*
D03*
X7655000D02*
D03*
X7491416Y4216188D02*
D03*
X7436890Y4328000D02*
D03*
D36*
X8419960Y4272094D02*
D03*
X7108148D02*
D03*
D37*
X7382362Y4216188D02*
D03*
D38*
X8407000Y3004000D02*
D03*
X7910000Y2999000D02*
D03*
X8411000Y2647000D02*
D03*
X8285000Y2801000D02*
D03*
X8410000Y2838000D02*
D03*
X8516000Y2837000D02*
D03*
X7962000Y2841000D02*
D03*
X7820000Y2827000D02*
D03*
X8011000Y3000000D02*
D03*
X7811000Y3002000D02*
D03*
X8262000Y4077000D02*
D03*
X8665000Y3294000D02*
D03*
X7680000Y3534000D02*
D03*
X7705000Y3293000D02*
D03*
X8192000D02*
D03*
X7834000Y2641000D02*
D03*
X7492000Y3794000D02*
D03*
X7377000Y2096500D02*
D03*
X6944000Y2394000D02*
D03*
X7572000Y3448000D02*
D03*
Y2247000D02*
D03*
X7995000Y4013000D02*
D03*
X7861000Y3081500D02*
D03*
%TF.MD5,7fca10cdc0123eade311ad2bef68c2df*%
M02*
